name analog
datacolumns 19
datarows 23
range 0.0 0.011
endheader
time	ground_force_vx	ground_force_vy	ground_force_vz	ground_force_px	ground_force_py	ground_force_pz	l_ground_force_vx	l_ground_force_vy	l_ground_force_vz	l_ground_force_px	l_ground_force_py	l_ground_force_pz	ground_torque_x	ground_torque_y	ground_torque_z	l_ground_torque_x	l_ground_torque_y	l_ground_torque_z
0.0	-0.0	-0.0	-0.0	-3.2023637294769287	18.179533004760746	-205.5020751953125	-12.32749366760254	-17.661046981811523	-438.8575744628906	-0.0	-0.0	-0.0	-0.0	-0.0	-0.0	116422.6171875	-3888.17333984375	-4794.689453125
0.0005	-0.0	-0.0	-0.0	-2.836733102798462	18.4320068359375	-205.5863494873047	-12.764629364013672	-17.409053802490234	-436.87799072265625	-0.0	-0.0	-0.0	-0.0	-0.0	-0.0	116534.484375	-4018.523193359375	-4881.654296875
0.001	-0.0	-0.0	-0.0	-2.7596802711486816	18.616573333740234	-205.2206878662109	-12.948610305786133	-17.143857955932617	-438.8462524414063	-0.0	-0.0	-0.0	-0.0	-0.0	-0.0	116394.015625	-3972.302001953125	-4998.18017578125
0.0015	-0.0	-0.0	-0.0	-2.23598051071167	18.015766143798828	-208.67274475097656	-12.517521858215332	-17.65199089050293	-437.8361206054688	-0.0	-0.0	-0.0	-0.0	-0.0	-0.0	116289.3515625	-4069.25634765625	-4938.65283203125
0.002	-0.0	-0.0	-0.0	-1.9626312255859373	18.185386657714844	-206.64337158203125	-13.028366088867188	-17.21669578552246	-436.8006286621094	-0.0	-0.0	-0.0	-0.0	-0.0	-0.0	116266.7890625	-4103.7734375	-4847.86474609375
0.0025	-0.0	-0.0	-0.0	-1.9545007944107056	18.363571166992188	-207.30589294433597	-12.679737091064451	-17.38761329650879	-438.8603515625	-0.0	-0.0	-0.0	-0.0	-0.0	-0.0	116348.0859375	-3909.35498046875	-4880.31201171875
0.003	-0.0	-0.0	-0.0	-1.786857008934021	18.00963020324707	-207.68028259277344	-12.511110305786133	-17.054716110229492	-440.24609375	-0.0	-0.0	-0.0	-0.0	-0.0	-0.0	116385.78125	-4304.90625	-4822.6689453125
0.0035	-0.0	-0.0	-0.0	-1.8785862922668457	18.09347152709961	-207.68002319335935	-12.327973365783691	-17.05452537536621	-438.5233154296875	-0.0	-0.0	-0.0	-0.0	-0.0	-0.0	116314.421875	-4467.83984375	-4615.7509765625
0.004	-0.0	-0.0	-0.0	-2.306947708129883	17.9968318939209	-207.00311279296875	-11.795785903930664	-17.578752517700195	-438.08795166015625	-0.0	-0.0	-0.0	-0.0	-0.0	-0.0	115893.4609375	-4618.4462890625	-4695.177734375
0.0045000000000000005	-0.0	-0.0	-0.0	-2.4857254028320312	17.385292053222656	-209.4164276123047	-11.096880912780762	-17.391374588012695	-435.4658508300781	-0.0	-0.0	-0.0	-0.0	-0.0	-0.0	115877.1484375	-4642.0107421875	-4378.29541015625
0.005	-0.0	-0.0	-0.0	-2.401615619659424	17.992570877075195	-208.0323028564453	-10.721003532409668	-16.890153884887695	-436.0801696777344	-0.0	-0.0	-0.0	-0.0	-0.0	-0.0	115783.8671875	-4901.4462890625	-4401.3232421875
0.0055	-0.0	-0.0	-0.0	-2.1341769695281982	17.467269897460938	-209.04623413085935	-10.465335845947266	-16.80132293701172	-434.3346252441406	-0.0	-0.0	-0.0	-0.0	-0.0	-0.0	115445.734375	-5296.66259765625	-4192.64404296875
0.006	-0.0	-0.0	-0.0	-2.4086837768554688	17.725858688354492	-208.34979248046875	-9.667010307312012	-17.048540115356445	-433.9566650390625	-0.0	-0.0	-0.0	-0.0	-0.0	-0.0	115200.625	-5486.9208984375	-4042.21728515625
0.006500000000000001	-0.0	-0.0	-0.0	-2.4108264446258545	17.130163192749023	-208.72933959960935	-9.305079460144045	-16.9530086517334	-432.9573974609375	-0.0	-0.0	-0.0	-0.0	-0.0	-0.0	114862.65625	-5757.97119140625	-3693.2578125
0.007	-0.0	-0.0	-0.0	-1.7033116817474363	17.386655807495117	-205.9697113037109	-8.861783027648926	-16.695112228393555	-432.9114074707031	-0.0	-0.0	-0.0	-0.0	-0.0	-0.0	114983.8125	-5970.68994140625	-3692.76953125
0.0075	-0.0	-0.0	-0.0	-2.402641773223877	17.994279861450195	-208.72933959960935	-8.081722259521484	-16.60222625732422	-431.89166259765625	-0.0	-0.0	-0.0	-0.0	-0.0	-0.0	114842.40625	-5987.3017578125	-3600.069580078125
0.008	-0.0	-0.0	-0.0	-2.15267014503479	16.864992141723633	-209.74288940429688	-7.895259857177734	-16.425661087036133	-431.5427856445313	-0.0	-0.0	-0.0	-0.0	-0.0	-0.0	114895.09375	-6493.21875	-3539.808349609375
0.0085	-0.0	-0.0	-0.0	-2.230262756347656	17.64595603942871	-208.40570068359372	-7.443257808685303	-16.251190185546875	-431.1939697265625	-0.0	-0.0	-0.0	-0.0	-0.0	-0.0	114750.078125	-6641.44580078125	-3535.20458984375
0.009000000000000001	-0.0	-0.0	-0.0	-2.4943196773529053	17.646034240722656	-206.9917449951172	-7.268179893493652	-16.33951187133789	-432.24169921875	-0.0	-0.0	-0.0	-0.0	-0.0	-0.0	114642.0234375	-6980.58203125	-3303.388916015625
0.0095	-0.0	-0.0	-0.0	-2.324643611907959	17.6495418548584	-209.7820587158203	-7.092920303344727	-15.90182876586914	-431.2022705078125	-0.0	-0.0	-0.0	-0.0	-0.0	-0.0	114735.484375	-7371.9384765625	-3330.796875
0.01	-0.0	-0.0	-0.0	-2.5937130451202397	17.385379791259766	-210.1158905029297	-6.923242092132568	-16.072654724121094	-432.58392333984375	-0.0	-0.0	-0.0	-0.0	-0.0	-0.0	114819.0078125	-7082.8388671875	-3417.829345703125
0.0105	-0.0	-0.0	-0.0	-2.317898988723755	17.56340789794922	-210.8608856201172	-7.10233211517334	-15.723074913024902	-430.1476135253906	-0.0	-0.0	-0.0	-0.0	-0.0	-0.0	114854.171875	-7435.06884765625	-3361.081298828125
0.011	-0.0	-0.0	-0.0	-2.767035722732544	17.477102279663086	-209.4596099853516	-7.538657665252685	-15.986225128173828	-430.1409301757813	-0.0	-0.0	-0.0	-0.0	-0.0	-0.0	114732.8515625	-7638.45458984375	-3447.509765625
